<?xml version="1.0" encoding="UTF-8"?>
<svg id="Ebene_2" data-name="Ebene 2" xmlns="http://www.w3.org/2000/svg" viewBox="0 0 498.56 498.41" fill="#b8b9ba">
  <defs>
    <style>
      .cls-1 {
        stroke: #000;
        stroke-miterlimit: 10;
      }
    </style>
  </defs>
  <g id="Ebene_2-2" data-name="Ebene 2">
    <path class="cls-1" d="m227.97,20.21c0,14.07,11.41,19.11,21.04,19.11,24.74,0,56.74,20.74,56.89,57.48l-.15,302.37s3.26,56.44-59.11,59.85c-9.04.44-18.67,9.04-18.52,20-.15,7.41,7.7,18.88,19.41,18.81,54.96-.74,77.93-38.96,77.93-38.96,0,0,22.96,36.74,76.3,38.96,8.59.82,20.74-5.78,20.59-19.26.15-9.33-6.96-19.41-20.15-19.41-22.07.3-56.74-16.3-57.48-60V97.1c.44-40.3,32.24-55.22,57.48-57.93,13.19,1.04,20.38-9.93,20.3-19.26.08-9.04-7.7-19.76-20.89-19.41-52.59,1.78-76.3,38.96-76.3,38.96,0,0-21.33-34.81-74.67-38.96-20.44-.36-22.67,16-22.67,19.7Z"/>
    <path class="cls-1" d="m383.44,133.48c0-13.33,11.62-17.73,16.56-18.39,0,0,22.72.28,30.06.17,66.78,7.89,68,73.33,68,73.33l-.22,120.89s-.89,66.11-68.89,73.67c-1.99.28-18.54.21-29.11-.11,0,0-16.39-2.89-16.33-18-.56-16.67,16.78-18.56,16.78-18.56,8.24-.02,16.9.06,25.44.11,24.14-2.46,33.33-25.44,33.56-33l.11-130c-.33-9.22-8.22-30-35.89-31.89-4.22-.16-23.78.22-23.78.22-7.42-1.59-16.28-7.44-16.28-18.44Z"/>
    <path class="cls-1" d="m266.87,133.58c0-10.16-8.36-18.52-18.52-18.52-59.68.07-119.36.15-179.04.22C31.46,118.76,1.69,150.46.57,189.5c-.02,40.05-.05,80.1-.07,120.15,0,38.74,32.89,70.3,68.81,73.7,59.8-.02,119.6-.05,179.41-.07,9.98-.24,18.02-8.46,18.07-18.3.06-10.03-8.2-18.43-18.37-18.52H77.39c-21.48-1.48-38.07-21.04-38.07-38-.02-40.07-.05-80.15-.07-120.22.22-19.41,17.11-35.41,37.93-36.22,57.06.02,114.12.05,171.19.07,10.16,0,18.52-8.36,18.52-18.52Z"/>
  </g>
</svg>