<?xml version="1.0" encoding="UTF-8"?>
<svg id="Ebene_2" data-name="Ebene 2" xmlns="http://www.w3.org/2000/svg" xmlns:xlink="http://www.w3.org/1999/xlink" viewBox="0 0 575.85 569.93">
  <defs>
    <style>
      .cls-1 {
        fill: #d07aff;
      }

      .cls-2 {
        fill: #6d47ff;
      }

      .cls-3 {
        fill: url(#Unbenannter_Verlauf_7);
      }

      .cls-4 {
        fill: url(#Unbenannter_Verlauf_9);
      }
    </style>
    <linearGradient id="Unbenannter_Verlauf_7" data-name="Unbenannter Verlauf 7" x1="105.78" y1="306.89" x2="288" y2="306.89" gradientUnits="userSpaceOnUse">
      <stop offset="0" stop-color="#d07aff"/>
      <stop offset="1" stop-color="#a568ff"/>
    </linearGradient>
    <linearGradient id="Unbenannter_Verlauf_9" data-name="Unbenannter Verlauf 9" x1="288" y1="306.89" x2="470.22" y2="306.89" gradientUnits="userSpaceOnUse">
      <stop offset="0" stop-color="#6757d4"/>
      <stop offset="1" stop-color="#6d47ff"/>
    </linearGradient>
  </defs>
  <g id="Ebene_2-2" data-name="Ebene 2">
    <path class="cls-1" d="m113.78,0H18.37C8.22,0,0,8.22,0,18.37h0v95.41c0,10.15,8.22,18.37,18.37,18.37h0c10.15,0,18.37-8.22,18.37-18.37V36.74h77.04c10.15,0,18.37-8.22,18.37-18.37h0c0-10.15-8.22-18.37-18.37-18.37Z"/>
    <path class="cls-1" d="m2.37,456.15v95.41h0c0,10.15,8.22,18.37,18.37,18.37h95.41c10.15,0,18.37-8.22,18.37-18.37h0c0-10.15-8.22-18.37-18.37-18.37H39.11v-77.04c0-10.15-8.22-18.37-18.37-18.37h0c-10.15,0-18.37,8.22-18.37,18.37Z"/>
    <path class="cls-2" d="m462.07,569.93h95.41c10.15,0,18.37-8.22,18.37-18.37h0v-95.41c0-10.15-8.22-18.37-18.37-18.37h0c-10.15,0-18.37,8.22-18.37,18.37v77.04h-77.04c-10.15,0-18.37,8.22-18.37,18.37h0c0,10.15,8.22,18.37,18.37,18.37Z"/>
    <path class="cls-2" d="m575.85,113.78V18.37h0C575.85,8.22,567.63,0,557.48,0h-95.41C451.93,0,443.7,8.22,443.7,18.37h0c0,10.15,8.22,18.37,18.37,18.37h77.04v77.04c0,10.15,8.22,18.37,18.37,18.37h0c10.15,0,18.37-8.22,18.37-18.37Z"/>
    <path class="cls-3" d="m168.89,98.37h-50.7c-6.85,0-12.41,5.55-12.41,12.41v99.33c0,6.85,5.55,12.41,12.41,12.41h45.7c6.85,0,12.41-5.55,12.41-12.41v-28.81c0-6.85,5.55-12.41,12.41-12.41h51.63c6.85,0,12.41,5.55,12.41,12.41v251.19c0,6.85-5.55,12.41-12.41,12.41h-19.63c-6.85,0-12.41,5.55-12.41,12.41v45.7c0,6.85,5.55,12.41,12.41,12.41h67.3V98.37h-119.11Z"/>
    <path class="cls-4" d="m407.11,98.37h5.04s45.67,0,45.67,0c6.85,0,12.41,5.55,12.41,12.41v99.33c0,6.85-5.55,12.41-12.41,12.41h-45.7c-6.85,0-12.41-5.55-12.41-12.41v-28.81c0-6.85-5.55-12.41-12.41-12.41h-51.63c-6.85,0-12.41,5.55-12.41,12.41v251.19c0,6.85,5.55,12.41,12.41,12.41h19.63c6.85,0,12.41,5.55,12.41,12.41v45.7c0,6.85-5.55,12.41-12.41,12.41h-32.04s-18.67,0-18.67,0h-16.59V168.89s0-70.52,0-70.52h119.11Z"/>
  </g>
</svg>